<svg xmlns="http://www.w3.org/2000/svg" xmlns:xlink="http://www.w3.org/1999/xlink" id="Layer_1" x="0px" y="0px" viewBox="0 0 771 276" style="enable-background:new 0 0 771 276;" xml:space="preserve"><style type="text/css">	.st0{fill:url(#SVGID_1_);}	.st1{fill:url(#SVGID_2_);}	.st2{fill:url(#SVGID_3_);}	.st3{fill:url(#SVGID_4_);}	.st4{fill:url(#SVGID_5_);}	.st5{fill:url(#SVGID_6_);}	.st6{fill:url(#SVGID_7_);}	.st7{fill:url(#SVGID_8_);}	.st8{fill:#D2D1D3;}	.st9{fill:url(#SVGID_9_);}	.st10{fill:url(#SVGID_10_);}	.st11{fill:url(#SVGID_11_);}	.st12{fill:url(#SVGID_12_);}	.st13{fill:url(#SVGID_13_);}	.st14{font-family:'Cormorant-Medium';}	.st15{font-size:55.7507px;}	.st16{letter-spacing:3;}	.st17{font-family:'Cormorant-Regular';}	.st18{font-size:24.0918px;}	.st19{letter-spacing:7;}</style><g>	<g>		<g>			<linearGradient id="SVGID_1_" gradientUnits="userSpaceOnUse" x1="117.6272" y1="143.7729" x2="292.2832" y2="143.7729">				<stop offset="0" style="stop-color:#E5A624"></stop>				<stop offset="0" style="stop-color:#E7B620"></stop>				<stop offset="0.3198" style="stop-color:#DDAD26"></stop>				<stop offset="0.6802" style="stop-color:#B67E2B"></stop>				<stop offset="1" style="stop-color:#FAF18A"></stop>			</linearGradient>			<path class="st0" d="M117.63,156.32c0,0,85.62-20.95,174.66,0c0,0-6.45-18.29-17.63-23.34    C274.65,132.97,176.92,121.73,117.63,156.32z"></path>			<linearGradient id="SVGID_2_" gradientUnits="userSpaceOnUse" x1="200.6986" y1="99.4148" x2="205.1315" y2="158.6754">				<stop offset="0" style="stop-color:#468BCA"></stop>				<stop offset="1" style="stop-color:#22407B"></stop>			</linearGradient>			<path class="st1" d="M117.63,156.32c0,0,85.62-20.95,174.66,0c0,0-3.06-7.27-4.36-9.31    C287.92,147.01,196.07,124.62,117.63,156.32z"></path>			<linearGradient id="SVGID_3_" gradientUnits="userSpaceOnUse" x1="121.8006" y1="131.5206" x2="273.1101" y2="131.5206">				<stop offset="0" style="stop-color:#E5A624"></stop>				<stop offset="0" style="stop-color:#E7B620"></stop>				<stop offset="0.3198" style="stop-color:#DDAD26"></stop>				<stop offset="0.6802" style="stop-color:#B67E2B"></stop>				<stop offset="1" style="stop-color:#FAF18A"></stop>			</linearGradient>			<path class="st2" d="M121.8,150.44c0,0,67.82-44.33,151.31-21.01C273.11,129.43,185.18,80.05,121.8,150.44z"></path>			<linearGradient id="SVGID_4_" gradientUnits="userSpaceOnUse" x1="190.5011" y1="120.2341" x2="191.5611" y2="123.2375">				<stop offset="0" style="stop-color:#468BCA"></stop>				<stop offset="1" style="stop-color:#22407B"></stop>			</linearGradient>			<path class="st3" d="M121.8,150.44c0,0,67.82-44.33,151.31-21.01C273.11,129.43,200.3,96.64,121.8,150.44z"></path>			<linearGradient id="SVGID_5_" gradientUnits="userSpaceOnUse" x1="181.7885" y1="87.7699" x2="183.4748" y2="91.6612">				<stop offset="0" style="stop-color:#468BCA"></stop>				<stop offset="1" style="stop-color:#22407B"></stop>			</linearGradient>			<path class="st4" d="M236.51,110.61c0,0,12.37-12.49,22.09-39.14c0,0-83.26-8.93-136.79,71.41c0,0,45.28-63.37,123.45-63.3    C245.25,79.57,242.59,100.4,236.51,110.61z"></path>			<linearGradient id="SVGID_6_" gradientUnits="userSpaceOnUse" x1="121.8006" y1="111.2231" x2="245.2468" y2="111.2231">				<stop offset="0" style="stop-color:#E5A624"></stop>				<stop offset="0" style="stop-color:#E7B620"></stop>				<stop offset="0.3198" style="stop-color:#DDAD26"></stop>				<stop offset="0.6802" style="stop-color:#B67E2B"></stop>				<stop offset="1" style="stop-color:#FAF18A"></stop>			</linearGradient>			<path class="st5" d="M236.51,110.61c0,0,7.11-21.22,5-28.28c0,0-51.41-3.06-119.7,60.55c0,0,45.36-63.59,123.45-63.3    C245.25,79.57,243.85,96.21,236.51,110.61z"></path>			<linearGradient id="SVGID_7_" gradientUnits="userSpaceOnUse" x1="120.289" y1="80.9727" x2="218.9332" y2="80.9727">				<stop offset="0" style="stop-color:#468BCA"></stop>				<stop offset="1" style="stop-color:#22407B"></stop>			</linearGradient>			<path class="st6" d="M120.29,138.26c0,0,32.59-57.71,96.52-67.09c0,0,4.01-29.44,1-47.49c0,0-4.51,31.84-11.53,40.87    C206.28,64.55,149.87,79.6,120.29,138.26z"></path>			<linearGradient id="SVGID_8_" gradientUnits="userSpaceOnUse" x1="120.289" y1="80.9727" x2="217.8143" y2="80.9727">				<stop offset="0" style="stop-color:#E5A624"></stop>				<stop offset="0" style="stop-color:#E7B620"></stop>				<stop offset="0.3198" style="stop-color:#DDAD26"></stop>				<stop offset="0.6802" style="stop-color:#B67E2B"></stop>				<stop offset="1" style="stop-color:#FAF18A"></stop>			</linearGradient>			<path class="st7" d="M120.29,138.26c0,0,19.75-69.79,97.53-114.58c0,0-2.03,31.87-11.53,40.87    C206.28,64.55,147.35,82.21,120.29,138.26z"></path>			<polygon class="st8" points="117.63,81.4 117.63,81.4 117.63,81.4    "></polygon>			<linearGradient id="SVGID_9_" gradientUnits="userSpaceOnUse" x1="93.6322" y1="65.4533" x2="174.7393" y2="65.4533">				<stop offset="0" style="stop-color:#E5A624"></stop>				<stop offset="0" style="stop-color:#E7B620"></stop>				<stop offset="0.3198" style="stop-color:#DDAD26"></stop>				<stop offset="0.6802" style="stop-color:#B67E2B"></stop>				<stop offset="1" style="stop-color:#FAF18A"></stop>			</linearGradient>			<path class="st9" d="M174.74,46.42c-6.84,1.07-13.57,2.73-20.06,5.07c-12.23,4.41-23.65,11.01-33.66,19.58l-0.05,0.04l-0.19,0.17    c-1.37,1.17-2.69,2.38-3.99,3.64l-0.36,0.34l-0.02,0.01c-1.31,1.28-2.6,2.58-3.85,3.92l-0.02,0.01l-0.33,0.37    c-1.22,1.31-2.4,2.66-3.57,4.03c-0.17,0.23-0.35,0.44-0.51,0.65c-1.03,1.24-2.01,2.5-2.97,3.77c-0.1,0.14-0.28,0.33-0.49,0.62    c-4.16,5.64-7.86,11.77-10.94,18.35l0.01,0.02c-0.02,0.01-0.02,0.01-0.02,0.01c-0.02,0.05-0.06,0.13-0.08,0.2    c0.03-0.52,0.03-1.03,0.06-1.52l0.01-0.03l0.01-0.26c0.17-2.24,0.42-4.46,0.76-6.7c1.93-13.18,6.45-25.79,13.27-37.12l0.01-0.03    l0.01-0.03c0.37-0.62,0.79-1.26,1.21-1.92c0.31-0.49,0.59-0.95,0.84-1.36c0.24-0.34,0.5-0.71,0.78-1.13    c0.49-0.7,0.95-1.4,1.42-2.05c0.71-1.02,1.45-2,2.2-2.97l0.03-0.03l0.09-0.12c0.79-1.02,1.59-2.03,2.42-3.01l0.01-0.03    c8.68-10.38,19.57-19.03,32.29-25.26C159.11,29.84,167.71,37.58,174.74,46.42z"></path>			<linearGradient id="SVGID_10_" gradientUnits="userSpaceOnUse" x1="113.3262" y1="195.9218" x2="194.4401" y2="195.9218">				<stop offset="0" style="stop-color:#E5A624"></stop>				<stop offset="0" style="stop-color:#E7B620"></stop>				<stop offset="0.3198" style="stop-color:#DDAD26"></stop>				<stop offset="0.6802" style="stop-color:#B67E2B"></stop>				<stop offset="1" style="stop-color:#FAF18A"></stop>			</linearGradient>			<path class="st10" d="M194.44,154.16c-0.02,0.24-0.02,0.47-0.05,0.69c-0.01,0.43-0.03,0.79-0.05,1.1    c-1.59,20.79-9.74,40.59-23.04,56.45c-8.68,10.38-19.57,19.03-32.28,25.28c-10.06-6.16-18.66-13.9-25.7-22.73    c6.84-1.07,13.55-2.75,20.03-5.08c12.23-4.41,23.67-11,33.68-19.57c1.29-1.12,2.54-2.27,3.77-3.43l0.27-0.25l0.04-0.01l0.03-0.03    c0.66-0.64,1.3-1.25,1.89-1.84l0.04-0.06l0.05-0.04l0.07-0.09c0.44-0.43,0.85-0.86,1.27-1.28l0.03-0.03l0.04-0.06l0.03-0.03    l0.1-0.12l0.21-0.23c0,0,0,0,0.02-0.01l0.17-0.17c0.29-0.3,0.55-0.6,0.79-0.86l0.12-0.13l0.06-0.06l0.01-0.03l0.09-0.1l0.1-0.12    l0.04-0.01l0.01-0.03l0.02-0.01l-0.01-0.02c0.31-0.32,0.58-0.63,0.85-0.94c0.14-0.14,0.31-0.32,0.5-0.56l0.02-0.01l0.03-0.03    l0.1-0.12l0.02-0.01l0.01-0.03c0.45-0.52,0.9-1.07,1.38-1.62l0.21-0.24l0.01-0.03c0.06-0.06,0.27-0.31,0.48-0.6    c0.36-0.4,0.7-0.82,1.02-1.21c0,0,0,0-0.01-0.02l0.24-0.28l0.02-0.05l0.02-0.01c0.12-0.15,0.34-0.42,0.58-0.74    c0.51-0.65,1.01-1.31,1.51-1.98l0.05-0.08l0.06-0.06l0.03-0.03c0.45-0.63,0.93-1.29,1.41-2.01l0.03-0.03l0.01-0.03l0.03-0.03    c0.41-0.57,0.8-1.13,1.15-1.68l0.02-0.01c0.01-0.03,0.03-0.03,0.04-0.06c0.66-0.98,1.29-1.94,1.9-2.93l0.12-0.19l0.04-0.08    c0.32-0.52,0.65-1.06,0.97-1.58l0.04-0.08l0.02-0.01l0.13-0.22l0.01-0.03l0.02-0.05l0.02-0.05c0.43-0.68,0.82-1.37,1.18-2.01    l-0.01-0.02c1.33-2.34,2.58-4.73,3.74-7.22L194.44,154.16z"></path>			<polygon class="st8" points="111.18,215.29 111.18,215.29 111.17,215.29    "></polygon>			<linearGradient id="SVGID_11_" gradientUnits="userSpaceOnUse" x1="37.0444" y1="140.529" x2="120.5146" y2="140.529">				<stop offset="0" style="stop-color:#E5A624"></stop>				<stop offset="0" style="stop-color:#E7B620"></stop>				<stop offset="0.3198" style="stop-color:#DDAD26"></stop>				<stop offset="0.6802" style="stop-color:#B67E2B"></stop>				<stop offset="1" style="stop-color:#FAF18A"></stop>			</linearGradient>			<path class="st11" d="M120.51,181.07c-0.43-0.01-0.87-0.02-1.31-0.06l-0.03-0.01l-0.41-0.02c-17.66-1.35-34.56-7.43-49-17.37    c-2.56-1.78-5.07-3.64-7.47-5.65l-0.09-0.07c-10.31-8.67-18.95-19.54-25.17-32.21c6.16-10.06,13.9-18.66,22.73-25.68    c1.05,6.85,2.73,13.57,5.07,20.06c4.41,12.23,11.01,23.65,19.58,33.66c5.14,6.01,11.02,11.52,17.57,16.34l0.01,0.02    c5.65,4.18,11.76,7.85,18.36,10.96C120.42,181.04,120.47,181.07,120.51,181.07z"></path>			<linearGradient id="SVGID_12_" gradientUnits="userSpaceOnUse" x1="66.5705" y1="99.2246" x2="106.1472" y2="99.2246">				<stop offset="0" style="stop-color:#468BCA"></stop>				<stop offset="0.6324" style="stop-color:#22407B"></stop>			</linearGradient>			<path class="st12" d="M106.15,49.37c-11.8,16.1-18.99,35.32-20.53,55.44c-0.61,7.91-0.34,15.95,0.85,24.01    c1.04,6.87,2.74,13.76,5.19,20.57l0.12,0.34c-0.39-0.45-0.82-0.87-1.19-1.3c-7.94-9.25-14.03-19.81-18.1-31.13    c-2.91-8.08-4.79-16.51-5.54-25.11c-1.2-13.49,0.39-27.31,4.97-40.73C83.39,48.72,94.93,48.09,106.15,49.37z"></path>			<linearGradient id="SVGID_13_" gradientUnits="userSpaceOnUse" x1="115.9803" y1="211.1919" x2="113.6028" y2="192.5681">				<stop offset="0" style="stop-color:#468BCA"></stop>				<stop offset="1" style="stop-color:#22407B"></stop>			</linearGradient>			<path class="st13" d="M163.06,182.94c-0.43,0.39-0.87,0.8-1.3,1.19c-9.25,7.92-19.83,14.03-31.15,18.11    c-8.06,2.9-16.5,4.76-25.09,5.53c-13.48,1.18-27.32-0.41-40.71-4.98c-2.75-11.45-3.37-23.02-2.09-34.23    c16.1,11.8,35.32,18.99,55.42,20.53c7.92,0.63,15.95,0.36,24.01-0.85c6.94-1.02,13.89-2.74,20.75-5.21    C162.96,183,163.01,182.96,163.06,182.94z"></path>		</g>		<text transform="matrix(1 0 0 1 206.2002 210.9262)" class="st14 st15 st16">SRI  SHANMUGHA</text>		<text transform="matrix(1 0 0 1 207.0009 245.4984)" class="st17 st18 st19">EDUCATIONAL INSTITUTIONS</text>	</g>	<g>		<g>			<path d="M723.28,177.21c0.97,0,1.43,0.54,1.43,1.21c0,0.53-0.29,1.03-0.98,1.18l1.03,1.72h-0.64l-0.98-1.68h-0.65v1.68h-0.54    v-4.11H723.28z M723.28,177.66h-0.79v1.56h0.79c0.61,0,0.87-0.33,0.87-0.79C724.15,177.96,723.89,177.66,723.28,177.66z"></path>		</g>		<path d="M723.35,176.07c1.77,0,3.2,1.43,3.2,3.2s-1.43,3.2-3.2,3.2s-3.2-1.43-3.2-3.2S721.59,176.07,723.35,176.07 M723.35,175.58   c-2.03,0-3.69,1.66-3.69,3.69s1.66,3.69,3.69,3.69s3.69-1.66,3.69-3.69S725.39,175.58,723.35,175.58L723.35,175.58z"></path>	</g></g></svg>